<svg xmlns="http://www.w3.org/2000/svg" width="408" height="185" viewBox="0 0 408 185" version="1.1"><path d="M 37 92.500 L 37 148 93 148 L 149 148 149 92.500 L 149 37 93 37 L 37 37 37 92.500 M 152.467 92.500 L 152.467 148.500 152.749 120.821 L 153.031 93.142 152.749 64.821 L 152.468 36.500 152.467 92.500 M 55 60 L 55 66 72.500 66 L 90 66 90 97.500 L 90 129 96.500 129 L 103 129 103 105.674 L 103 82.349 105.314 80.174 L 107.629 78 118.814 78 L 130 78 130 72 L 130 66 110 66 L 90 66 90 60 L 90 54 72.500 54 L 55 54 55 60" stroke="none" fill="#e4002b" fill-rule="evenodd"/><path d="M 165 56 L 165 65 166.500 65 L 168 65 168 61 L 168 57 171.500 57 L 175 57 175 55.500 L 175 54 171.500 54 L 168 54 168 51.500 L 168 49 172 49 L 176 49 176 48 L 176 47 170.500 47 L 165 47 165 56 M 182.534 48.176 L 182.075 49.500 179.537 56.369 L 177 63.238 177 64.119 L 177 65 178.025 65 L 179.050 65 180 62.500 L 180.950 60 184.367 60 L 187.783 60 188.411 62.500 L 189.038 65 190.586 65 L 192.135 65 191.473 62.916 L 190.812 60.831 188.564 54.166 L 186.316 47.500 184.655 47.176 L 182.994 46.852 182.534 48.176 M 196 56 L 196 65 197.500 65 L 199 65 199 62.122 L 199 59.245 200.328 58.143 L 201.655 57.041 203.891 61.021 L 206.128 65 208.091 65 L 210.053 65 206.578 59.839 L 203.102 54.678 203.996 53.007 L 204.891 51.336 206.445 50.045 L 208 48.755 208 47.878 L 208 47 206.636 47 L 205.272 47 202.386 51.180 L 199.500 55.360 199.193 51.180 L 198.885 47 197.443 47 L 196 47 196 56 M 214 54.800 L 214 62.600 215.200 63.800 L 216.400 65 220.500 65 L 224.600 65 225.800 63.800 L 227 62.600 227 54.800 L 227 47 225.500 47 L 224 47 224 54.500 L 224 62 220.500 62 L 217 62 217 54.500 L 217 47 215.500 47 L 214 47 214 54.800 M 232 56 L 232 65 237.500 65 L 243 65 243 63.500 L 243 62 239 62 L 235 62 235 54.500 L 235 47 233.500 47 L 232 47 232 56 M 243 48 L 243 49 245.500 49 L 248 49 248 57 L 248 65 249.500 65 L 251 65 251 57 L 251 49 254 49 L 257 49 257 48 L 257 47 250 47 L 243 47 243 48 M 262.533 47.947 L 261.879 49.004 259.440 56.177 L 257 63.350 257 64.175 L 257 65 258.025 65 L 259.050 65 260 62.500 L 260.950 60 264.367 60 L 267.783 60 268.411 62.500 L 269.038 65 270.586 65 L 272.135 65 271.473 62.916 L 270.812 60.831 268.564 54.166 L 266.316 47.500 264.751 47.195 L 263.186 46.889 262.533 47.947 M 183.167 53.950 L 182 57.298 182 57.649 L 182 58 184 58 L 186 58 185.930 56.250 L 185.859 54.500 185.097 52.551 L 184.334 50.602 183.167 53.950 M 263.110 53.315 L 262 56.130 262 57.065 L 262 58 264 58 L 266 58 265.930 56.250 L 265.859 54.500 265.040 52.500 L 264.220 50.500 263.110 53.315 M 55 60 L 55 66 72.500 66 L 90 66 90 97.500 L 90 129 96.500 129 L 103 129 103 105.674 L 103 82.349 105.314 80.174 L 107.629 78 118.814 78 L 130 78 130 72 L 130 66 110 66 L 90 66 90 60 L 90 54 72.500 54 L 55 54 55 60 M 325.312 73.748 L 341.125 74.051 356.312 73.748 L 371.500 73.444 340.500 73.445 L 309.500 73.445 325.312 73.748 M 286 81 L 287.070 83 288.413 83 L 289.755 83 291.020 81.476 L 292.285 79.952 291.667 79.333 L 291.048 78.715 289.613 79.906 L 288.178 81.097 287.530 80.049 L 286.882 79 285.906 79 L 284.930 79 286 81 M 320.345 80.543 L 319.753 82.086 320.216 82.549 L 320.679 83.012 322.494 81.006 L 324.310 79 322.624 79 L 320.937 79 320.345 80.543 M 165 93 L 165 102 166.500 102 L 168 102 168 93 L 168 84 166.500 84 L 165 84 165 93 M 173 93 L 173 102 174.452 102 L 175.905 102 176.202 95.750 L 176.500 89.500 180.065 95.499 L 183.629 101.498 185.315 101.822 L 187 102.147 187 93.073 L 187 84 185.548 84 L 184.095 84 183.798 90.250 L 183.500 96.500 180.019 90.250 L 176.538 84 174.769 84 L 173 84 173 93 M 192 93 L 192 102 193.500 102 L 195 102 195 98 L 195 94 198.500 94 L 202 94 202 92.500 L 202 91 198.500 91 L 195 91 195 88.500 L 195 86 199 86 L 203 86 203 85 L 203 84 197.500 84 L 192 84 192 93 M 207.667 84.667 L 207 85.333 207 92.467 L 207 99.600 208.200 100.800 L 209.400 102 213.500 102 L 217.600 102 218.800 100.800 L 220 99.600 220 93 L 220 86.400 218.800 85.200 L 217.600 84 212.967 84 L 208.333 84 207.667 84.667 M 225 93 L 225 102 226.500 102 L 228 102 228 98.500 L 228 95 229.843 95 L 231.685 95 233.570 98.500 L 235.455 102 236.727 102 L 238 102 238 101.450 L 238 100.901 236.396 97.798 L 234.792 94.696 236.396 93.798 L 238 92.901 238 89.650 L 238 86.400 236.800 85.200 L 235.600 84 230.300 84 L 225 84 225 93 M 243 93 L 243 102 244.500 102 L 246 102 246.100 96.750 L 246.199 91.500 248.285 96.250 L 250.370 101 250.935 100.980 L 251.500 100.960 253.661 96.230 L 255.822 91.500 255.911 96.750 L 256 102 257.500 102 L 259 102 259 93 L 259 84 257.627 84 L 256.254 84 253.727 89.750 L 251.200 95.500 248.612 89.750 L 246.025 84 244.513 84 L 243 84 243 93 M 266.095 92.552 L 263 101.105 263 101.552 L 263 102 264.392 102 L 265.783 102 266.411 99.500 L 267.038 97 270.500 97 L 273.962 97 274.589 99.500 L 275.217 102 276.608 102 L 278 102 278 101.310 L 278 100.619 275.294 92.310 L 272.588 84 270.888 84 L 269.189 84 266.095 92.552 M 283.035 85.934 L 282 87.869 282 93.363 L 282 98.857 283.571 100.429 L 285.143 102 288.871 102 L 292.600 102 293.800 100.800 L 295 99.600 295 98.300 L 295 97 293.500 97 L 292 97 292 98 L 292 99 288.452 99 L 284.905 99 285.202 92.750 L 285.500 86.500 288.750 86.187 L 292 85.873 292 87.437 L 292 89 293.500 89 L 295 89 295 87.700 L 295 86.400 293.800 85.200 L 292.600 84 288.335 84 L 284.070 84 283.035 85.934 M 300 92.927 L 300 102 301.452 102 L 302.905 102 303.202 95.874 L 303.500 89.748 306.937 95.874 L 310.375 102 311.687 102 L 313 102 313 93 L 313 84 311.550 84 L 310.100 84 309.800 89.597 L 309.500 95.193 306.461 89.853 L 303.422 84.512 301.711 84.183 L 300 83.853 300 92.927 M 319 93.083 L 319 102.167 320.250 101.753 L 321.500 101.339 321.789 92.669 L 322.078 84 320.539 84 L 319 84 319 93.083 M 328.200 85.200 L 327 86.400 327 93 L 327 99.600 328.200 100.800 L 329.400 102 333.129 102 L 336.857 102 338.429 100.429 L 340 98.857 340 97.929 L 340 97 338.500 97 L 337 97 337 98 L 337 99 333.500 99 L 330 99 330 92.500 L 330 86 333.031 86 L 336.063 86 336.638 87.500 L 337.214 89 338.607 89 L 340 89 340 87.700 L 340 86.400 338.800 85.200 L 337.600 84 333.500 84 L 329.400 84 328.200 85.200 M 344.211 92.669 L 344.500 101.339 345.686 101.731 L 346.872 102.124 347.186 98.312 L 347.500 94.500 351.250 94.190 L 355 93.879 355 97.940 L 355 102 356.500 102 L 358 102 358 93 L 358 84 356.500 84 L 355 84 355 87.500 L 355 91 351 91 L 347 91 347 87.500 L 347 84 345.461 84 L 343.922 84 344.211 92.669 M 210 92.437 L 210 99 213.548 99 L 217.095 99 216.798 92.750 L 216.500 86.500 213.250 86.187 L 210 85.873 210 92.437 M 228.713 86.621 L 228 87.333 228 89.667 L 228 92 231.566 92 L 235.133 92 234.816 89.250 L 234.500 86.500 231.963 86.204 L 229.425 85.908 228.713 86.621 M 269.324 90.952 L 268.217 93.884 268.775 94.442 L 269.333 95 271.234 95 L 273.135 95 272.446 92.750 L 271.758 90.500 271.095 89.260 L 270.431 88.019 269.324 90.952 M 330.980 117.524 L 329.715 119.048 330.333 119.667 L 330.952 120.285 332.476 119.020 L 334 117.755 334 116.878 L 334 116 333.122 116 L 332.245 116 330.980 117.524 M 163 122 L 163 123 165.500 123 L 168 123 168 131 L 168 139 169.500 139 L 171 139 171 131 L 171 123 173.500 123 L 176 123 176 122 L 176 121 169.500 121 L 163 121 163 122 M 180 130 L 180 139 185.500 139 L 191 139 191 137.500 L 191 136 187 136 L 183 136 183 133.500 L 183 131 186.500 131 L 190 131 190 129.500 L 190 128 186.500 128 L 183 128 183 125.500 L 183 123 187 123 L 191 123 191 122 L 191 121 185.500 121 L 180 121 180 130 M 196.667 121.667 L 196 122.333 196 129.467 L 196 136.600 197.200 137.800 L 198.400 139 202.129 139 L 205.857 139 207.429 137.429 L 209 135.857 209 134.929 L 209 134 207.559 134 L 206.118 134 205.500 135 L 204.882 136 201.941 136 L 199 136 199 129.500 L 199 123 202.031 123 L 205.063 123 205.638 124.500 L 206.214 126 207.607 126 L 209 126 209 125.434 L 209 124.869 207.965 122.934 L 206.930 121 202.131 121 L 197.333 121 196.667 121.667 M 213 130 L 213 139 214.500 139 L 216 139 216 135 L 216 131 220 131 L 224 131 224 135 L 224 139 225.500 139 L 227 139 227 130 L 227 121 225.500 121 L 224 121 224 124.500 L 224 128 220 128 L 216 128 216 124.500 L 216 121 214.500 121 L 213 121 213 130 M 232 129.927 L 232 139 233.452 139 L 234.905 139 235.202 132.750 L 235.500 126.500 238.995 132.776 L 242.490 139.052 243.995 138.765 L 245.500 138.477 245.789 129.739 L 246.078 121 244.587 121 L 243.095 121 242.798 127.246 L 242.500 133.492 238.954 127.501 L 235.407 121.509 233.704 121.181 L 232 120.853 232 129.927 M 252.244 122.156 L 251 123.400 251 130 L 251 136.600 252.200 137.800 L 253.400 139 257.578 139 L 261.755 139 262.923 137.592 L 264.091 136.185 263.796 128.842 L 263.500 121.500 258.494 121.206 L 253.488 120.912 252.244 122.156 M 269.821 129.998 L 270.142 139 275.071 139 L 280 139 280 137.500 L 280 136 276 136 L 272 136 272 128.500 L 272 121 270.750 120.998 L 269.500 120.995 269.821 129.998 M 285.200 122.200 L 284 123.400 284 129.629 L 284 135.857 285.571 137.429 L 287.143 139 291 139 L 294.857 139 296.429 137.429 L 298 135.857 298 130.363 L 298 124.869 296.965 122.934 L 295.930 121 291.165 121 L 286.400 121 285.200 122.200 M 304.200 122.200 L 303 123.400 303 130 L 303 136.600 304.200 137.800 L 305.400 139 309.129 139 L 312.857 139 314.429 137.429 L 316 135.857 316 132.929 L 316 130 312.500 130 L 309 130 309 131 L 309 132 311 132 L 313 132 313 134 L 313 136 309.452 136 L 305.905 136 306.202 129.750 L 306.500 123.500 309.256 123.183 L 312.011 122.866 312.613 124.433 L 313.214 126 314.607 126 L 316 126 316 124.700 L 316 123.400 314.800 122.200 L 313.600 121 309.500 121 L 305.400 121 304.200 122.200 M 321 130 L 321 139 322.500 139 L 324 139 324 130 L 324 121 322.500 121 L 321 121 321 130 M 329 130 L 329 139 330.500 139 L 332 139 332 130 L 332 121 330.500 121 L 329 121 329 130 M 254.713 123.621 L 254 124.333 254 130.167 L 254 136 257.548 136 L 261.095 136 260.798 129.750 L 260.500 123.500 257.963 123.204 L 255.425 122.908 254.713 123.621 M 287.714 123.619 L 287 124.333 287 130.227 L 287 136.121 290.750 135.810 L 294.500 135.500 294.500 129.500 L 294.500 123.500 291.464 123.203 L 288.428 122.905 287.714 123.619" stroke="none" fill="#ffffff" fill-rule="evenodd"/><path d="M 153 92.500 L 153 148 249.500 148 L 346 148 346 129.500 L 346 111 358.500 111 L 371 111 371 92.500 L 371 74 347.250 73.997 L 323.500 73.995 303.250 73.339 L 283 72.683 283 54.841 L 283 37 218 37 L 153 37 153 92.500 M 165 56 L 165 65 166.500 65 L 168 65 168 61 L 168 57 171.500 57 L 175 57 175 55.500 L 175 54 171.500 54 L 168 54 168 51.500 L 168 49 172 49 L 176 49 176 48 L 176 47 170.500 47 L 165 47 165 56 M 182.534 48.176 L 182.075 49.500 179.537 56.369 L 177 63.238 177 64.119 L 177 65 178.025 65 L 179.050 65 180 62.500 L 180.950 60 184.367 60 L 187.783 60 188.411 62.500 L 189.038 65 190.586 65 L 192.135 65 191.473 62.916 L 190.812 60.831 188.564 54.166 L 186.316 47.500 184.655 47.176 L 182.994 46.852 182.534 48.176 M 196 56 L 196 65 197.500 65 L 199 65 199 62.122 L 199 59.245 200.328 58.143 L 201.655 57.041 203.891 61.021 L 206.128 65 208.091 65 L 210.053 65 206.578 59.839 L 203.102 54.678 203.996 53.007 L 204.891 51.336 206.445 50.045 L 208 48.755 208 47.878 L 208 47 206.636 47 L 205.272 47 202.386 51.180 L 199.500 55.360 199.193 51.180 L 198.885 47 197.443 47 L 196 47 196 56 M 214 54.800 L 214 62.600 215.200 63.800 L 216.400 65 220.500 65 L 224.600 65 225.800 63.800 L 227 62.600 227 54.800 L 227 47 225.500 47 L 224 47 224 54.500 L 224 62 220.500 62 L 217 62 217 54.500 L 217 47 215.500 47 L 214 47 214 54.800 M 232 56 L 232 65 237.500 65 L 243 65 243 63.500 L 243 62 239 62 L 235 62 235 54.500 L 235 47 233.500 47 L 232 47 232 56 M 243 48 L 243 49 245.500 49 L 248 49 248 57 L 248 65 249.500 65 L 251 65 251 57 L 251 49 254 49 L 257 49 257 48 L 257 47 250 47 L 243 47 243 48 M 262.533 47.947 L 261.879 49.004 259.440 56.177 L 257 63.350 257 64.175 L 257 65 258.025 65 L 259.050 65 260 62.500 L 260.950 60 264.367 60 L 267.783 60 268.411 62.500 L 269.038 65 270.586 65 L 272.135 65 271.473 62.916 L 270.812 60.831 268.564 54.166 L 266.316 47.500 264.751 47.195 L 263.186 46.889 262.533 47.947 M 183.167 53.950 L 182 57.298 182 57.649 L 182 58 184 58 L 186 58 185.930 56.250 L 185.859 54.500 185.097 52.551 L 184.334 50.602 183.167 53.950 M 263.110 53.315 L 262 56.130 262 57.065 L 262 58 264 58 L 266 58 265.930 56.250 L 265.859 54.500 265.040 52.500 L 264.220 50.500 263.110 53.315 M 286 81 L 287.070 83 288.413 83 L 289.755 83 291.020 81.476 L 292.285 79.952 291.667 79.333 L 291.048 78.715 289.613 79.906 L 288.178 81.097 287.530 80.049 L 286.882 79 285.906 79 L 284.930 79 286 81 M 320.345 80.543 L 319.753 82.086 320.216 82.549 L 320.679 83.012 322.494 81.006 L 324.310 79 322.624 79 L 320.937 79 320.345 80.543 M 165 93 L 165 102 166.500 102 L 168 102 168 93 L 168 84 166.500 84 L 165 84 165 93 M 173 93 L 173 102 174.452 102 L 175.905 102 176.202 95.750 L 176.500 89.500 180.065 95.499 L 183.629 101.498 185.315 101.822 L 187 102.147 187 93.073 L 187 84 185.548 84 L 184.095 84 183.798 90.250 L 183.500 96.500 180.019 90.250 L 176.538 84 174.769 84 L 173 84 173 93 M 192 93 L 192 102 193.500 102 L 195 102 195 98 L 195 94 198.500 94 L 202 94 202 92.500 L 202 91 198.500 91 L 195 91 195 88.500 L 195 86 199 86 L 203 86 203 85 L 203 84 197.500 84 L 192 84 192 93 M 207.667 84.667 L 207 85.333 207 92.467 L 207 99.600 208.200 100.800 L 209.400 102 213.500 102 L 217.600 102 218.800 100.800 L 220 99.600 220 93 L 220 86.400 218.800 85.200 L 217.600 84 212.967 84 L 208.333 84 207.667 84.667 M 225 93 L 225 102 226.500 102 L 228 102 228 98.500 L 228 95 229.843 95 L 231.685 95 233.570 98.500 L 235.455 102 236.727 102 L 238 102 238 101.450 L 238 100.901 236.396 97.798 L 234.792 94.696 236.396 93.798 L 238 92.901 238 89.650 L 238 86.400 236.800 85.200 L 235.600 84 230.300 84 L 225 84 225 93 M 243 93 L 243 102 244.500 102 L 246 102 246.100 96.750 L 246.199 91.500 248.285 96.250 L 250.370 101 250.935 100.980 L 251.500 100.960 253.661 96.230 L 255.822 91.500 255.911 96.750 L 256 102 257.500 102 L 259 102 259 93 L 259 84 257.627 84 L 256.254 84 253.727 89.750 L 251.200 95.500 248.612 89.750 L 246.025 84 244.513 84 L 243 84 243 93 M 266.095 92.552 L 263 101.105 263 101.552 L 263 102 264.392 102 L 265.783 102 266.411 99.500 L 267.038 97 270.500 97 L 273.962 97 274.589 99.500 L 275.217 102 276.608 102 L 278 102 278 101.310 L 278 100.619 275.294 92.310 L 272.588 84 270.888 84 L 269.189 84 266.095 92.552 M 283.035 85.934 L 282 87.869 282 93.363 L 282 98.857 283.571 100.429 L 285.143 102 288.871 102 L 292.600 102 293.800 100.800 L 295 99.600 295 98.300 L 295 97 293.500 97 L 292 97 292 98 L 292 99 288.452 99 L 284.905 99 285.202 92.750 L 285.500 86.500 288.750 86.187 L 292 85.873 292 87.437 L 292 89 293.500 89 L 295 89 295 87.700 L 295 86.400 293.800 85.200 L 292.600 84 288.335 84 L 284.070 84 283.035 85.934 M 300 92.927 L 300 102 301.452 102 L 302.905 102 303.202 95.874 L 303.500 89.748 306.937 95.874 L 310.375 102 311.687 102 L 313 102 313 93 L 313 84 311.550 84 L 310.100 84 309.800 89.597 L 309.500 95.193 306.461 89.853 L 303.422 84.512 301.711 84.183 L 300 83.853 300 92.927 M 319 93.083 L 319 102.167 320.250 101.753 L 321.500 101.339 321.789 92.669 L 322.078 84 320.539 84 L 319 84 319 93.083 M 328.200 85.200 L 327 86.400 327 93 L 327 99.600 328.200 100.800 L 329.400 102 333.129 102 L 336.857 102 338.429 100.429 L 340 98.857 340 97.929 L 340 97 338.500 97 L 337 97 337 98 L 337 99 333.500 99 L 330 99 330 92.500 L 330 86 333.031 86 L 336.063 86 336.638 87.500 L 337.214 89 338.607 89 L 340 89 340 87.700 L 340 86.400 338.800 85.200 L 337.600 84 333.500 84 L 329.400 84 328.200 85.200 M 344.211 92.669 L 344.500 101.339 345.686 101.731 L 346.872 102.124 347.186 98.312 L 347.500 94.500 351.250 94.190 L 355 93.879 355 97.940 L 355 102 356.500 102 L 358 102 358 93 L 358 84 356.500 84 L 355 84 355 87.500 L 355 91 351 91 L 347 91 347 87.500 L 347 84 345.461 84 L 343.922 84 344.211 92.669 M 210 92.437 L 210 99 213.548 99 L 217.095 99 216.798 92.750 L 216.500 86.500 213.250 86.187 L 210 85.873 210 92.437 M 228.713 86.621 L 228 87.333 228 89.667 L 228 92 231.566 92 L 235.133 92 234.816 89.250 L 234.500 86.500 231.963 86.204 L 229.425 85.908 228.713 86.621 M 269.324 90.952 L 268.217 93.884 268.775 94.442 L 269.333 95 271.234 95 L 273.135 95 272.446 92.750 L 271.758 90.500 271.095 89.260 L 270.431 88.019 269.324 90.952 M 330.980 117.524 L 329.715 119.048 330.333 119.667 L 330.952 120.285 332.476 119.020 L 334 117.755 334 116.878 L 334 116 333.122 116 L 332.245 116 330.980 117.524 M 163 122 L 163 123 165.500 123 L 168 123 168 131 L 168 139 169.500 139 L 171 139 171 131 L 171 123 173.500 123 L 176 123 176 122 L 176 121 169.500 121 L 163 121 163 122 M 180 130 L 180 139 185.500 139 L 191 139 191 137.500 L 191 136 187 136 L 183 136 183 133.500 L 183 131 186.500 131 L 190 131 190 129.500 L 190 128 186.500 128 L 183 128 183 125.500 L 183 123 187 123 L 191 123 191 122 L 191 121 185.500 121 L 180 121 180 130 M 196.667 121.667 L 196 122.333 196 129.467 L 196 136.600 197.200 137.800 L 198.400 139 202.129 139 L 205.857 139 207.429 137.429 L 209 135.857 209 134.929 L 209 134 207.559 134 L 206.118 134 205.500 135 L 204.882 136 201.941 136 L 199 136 199 129.500 L 199 123 202.031 123 L 205.063 123 205.638 124.500 L 206.214 126 207.607 126 L 209 126 209 125.434 L 209 124.869 207.965 122.934 L 206.930 121 202.131 121 L 197.333 121 196.667 121.667 M 213 130 L 213 139 214.500 139 L 216 139 216 135 L 216 131 220 131 L 224 131 224 135 L 224 139 225.500 139 L 227 139 227 130 L 227 121 225.500 121 L 224 121 224 124.500 L 224 128 220 128 L 216 128 216 124.500 L 216 121 214.500 121 L 213 121 213 130 M 232 129.927 L 232 139 233.452 139 L 234.905 139 235.202 132.750 L 235.500 126.500 238.995 132.776 L 242.490 139.052 243.995 138.765 L 245.500 138.477 245.789 129.739 L 246.078 121 244.587 121 L 243.095 121 242.798 127.246 L 242.500 133.492 238.954 127.501 L 235.407 121.509 233.704 121.181 L 232 120.853 232 129.927 M 252.244 122.156 L 251 123.400 251 130 L 251 136.600 252.200 137.800 L 253.400 139 257.578 139 L 261.755 139 262.923 137.592 L 264.091 136.185 263.796 128.842 L 263.500 121.500 258.494 121.206 L 253.488 120.912 252.244 122.156 M 269.821 129.998 L 270.142 139 275.071 139 L 280 139 280 137.500 L 280 136 276 136 L 272 136 272 128.500 L 272 121 270.750 120.998 L 269.500 120.995 269.821 129.998 M 285.200 122.200 L 284 123.400 284 129.629 L 284 135.857 285.571 137.429 L 287.143 139 291 139 L 294.857 139 296.429 137.429 L 298 135.857 298 130.363 L 298 124.869 296.965 122.934 L 295.930 121 291.165 121 L 286.400 121 285.200 122.200 M 304.200 122.200 L 303 123.400 303 130 L 303 136.600 304.200 137.800 L 305.400 139 309.129 139 L 312.857 139 314.429 137.429 L 316 135.857 316 132.929 L 316 130 312.500 130 L 309 130 309 131 L 309 132 311 132 L 313 132 313 134 L 313 136 309.452 136 L 305.905 136 306.202 129.750 L 306.500 123.500 309.256 123.183 L 312.011 122.866 312.613 124.433 L 313.214 126 314.607 126 L 316 126 316 124.700 L 316 123.400 314.800 122.200 L 313.600 121 309.500 121 L 305.400 121 304.200 122.200 M 321 130 L 321 139 322.500 139 L 324 139 324 130 L 324 121 322.500 121 L 321 121 321 130 M 329 130 L 329 139 330.500 139 L 332 139 332 130 L 332 121 330.500 121 L 329 121 329 130 M 254.713 123.621 L 254 124.333 254 130.167 L 254 136 257.548 136 L 261.095 136 260.798 129.750 L 260.500 123.500 257.963 123.204 L 255.425 122.908 254.713 123.621 M 287.714 123.619 L 287 124.333 287 130.227 L 287 136.121 290.750 135.810 L 294.500 135.500 294.500 129.500 L 294.500 123.500 291.464 123.203 L 288.428 122.905 287.714 123.619" stroke="none" fill="#0daee4" fill-rule="evenodd"/></svg>